<?xml version="1.0" standalone="no"?>
<!DOCTYPE svg PUBLIC "-//W3C//DTD SVG 20010904//EN"
 "http://www.w3.org/TR/2001/REC-SVG-20010904/DTD/svg10.dtd">
<svg version="1.0" xmlns="http://www.w3.org/2000/svg"
 width="100.000000pt" height="100.000000pt" viewBox="0 0 100.000000 100.000000"
 preserveAspectRatio="xMidYMid meet">

<g transform="translate(0.000000,100.000000) scale(0.100000,-0.100000)"
fill="#000000" stroke="none">
<path d="M493 798 c-5 -7 -40 -79 -78 -160 -39 -81 -73 -147 -76 -148 -3 0
-13 16 -22 35 -31 64 -45 50 -140 -140 -48 -96 -87 -182 -87 -190 0 -13 53
-15 410 -15 321 0 410 3 410 13 0 22 -101 208 -116 214 -8 3 -23 -2 -33 -11
-17 -15 -23 -5 -121 199 -103 213 -121 238 -147 203z m136 -247 c55 -118 107
-221 115 -230 14 -16 46 -86 46 -102 0 -5 -121 -9 -270 -9 -163 0 -270 4 -270
9 0 29 262 563 271 553 4 -4 52 -103 108 -221z"/>
</g>
</svg>
