<?xml version="1.0" encoding="iso-8859-1"?>
<!-- Uploaded to: SVG Repo, www.svgrepo.com, Generator: SVG Repo Mixer Tools -->
<svg height="800px" width="800px" version="1.1" id="Layer_1" xmlns="http://www.w3.org/2000/svg" xmlns:xlink="http://www.w3.org/1999/xlink" 
	 viewBox="0 0 512 512" xml:space="preserve">
<circle style="fill:#FFDA44;" cx="333.18" cy="178.82" r="178.82"/>
<circle style="fill:#FF9811;" cx="333.18" cy="178.82" r="122.35"/>
<polygon style="fill:#933EC5;" points="396.342,148.933 61.29,484.173 61.196,484.079 33.275,512 0,478.725 363.067,115.658 "/>
<g>
	<polygon style="fill:#FFFFFF;" points="396.342,148.933 362.377,182.919 329.091,149.634 363.067,115.658 	"/>
	<path style="fill:#FFFFFF;" d="M352.181,24.711v14.577c-14.347,5.699-18.143,9.495-23.843,23.843h-14.577
		c-5.699-14.347-9.495-18.143-23.843-23.843V24.711c14.347-5.699,18.143-9.495,23.843-23.843h14.577
		C334.038,15.215,337.834,19.011,352.181,24.711z"/>
	<path style="fill:#FFFFFF;" d="M399.866,71.141v14.577c-14.358,5.699-18.143,9.495-23.843,23.843h-14.577
		c-5.699-14.347-9.485-18.143-23.843-23.843V71.141c14.358-5.699,18.143-9.495,23.843-23.843h14.577
		C381.723,61.646,385.508,65.442,399.866,71.141z"/>
	<path style="fill:#FFFFFF;" d="M335.972,102.513v14.577c-20.413,8.115-26.185,13.887-34.3,34.3h-14.577
		c-8.115-20.413-13.887-26.185-34.3-34.3v-14.577c20.413-8.115,26.185-13.887,34.3-34.3h14.577
		C309.787,88.626,315.56,94.398,335.972,102.513z"/>
</g>
<polygon points="33.278,489.814 22.186,478.722 247.431,253.478 236.339,242.386 0.004,478.722 33.278,511.996 66.553,478.722 
	55.461,467.63 "/>
<path d="M363.07,115.656L251.128,227.597l11.092,11.092l78.168-78.168l11.092,11.092L70.25,452.841l11.092,11.091L396.344,148.93
	L363.07,115.656z M351.48,149.428l11.59-11.59l11.092,11.092l-11.59,11.59L351.48,149.428z"/>
<path d="M252.796,117.09c20.416,8.114,26.186,13.883,34.3,34.3h14.576c8.113-20.416,13.882-26.186,34.3-34.3v-14.577
	c-20.417-8.114-26.187-13.883-34.3-34.3h-14.576c-8.114,20.416-13.883,26.186-34.3,34.3L252.796,117.09L252.796,117.09z
	 M294.384,89.522c5.222,9.013,11.266,15.057,20.28,20.28c-9.014,5.222-15.057,11.267-20.28,20.28
	c-5.223-9.015-11.266-15.056-20.281-20.28C283.118,104.578,289.16,98.537,294.384,89.522z"/>
<path d="M313.762,63.131h14.576c5.702-14.352,9.49-18.139,23.843-23.843V24.711c-14.353-5.703-18.14-9.491-23.843-23.843l-14.576,0
	c-5.703,14.352-9.491,18.14-23.843,23.843v14.577C304.271,44.99,308.059,48.779,313.762,63.131z M321.05,21.16
	c2.987,4.419,6.42,7.852,10.839,10.839c-4.42,2.987-7.852,6.421-10.839,10.839c-2.988-4.419-6.421-7.851-10.839-10.839
	C314.63,29.012,318.062,25.58,321.05,21.16z"/>
<path d="M337.605,85.719c14.353,5.703,18.14,9.491,23.843,23.843h14.576c5.702-14.352,9.49-18.139,23.843-23.843V71.141
	c-14.353-5.703-18.14-9.491-23.843-23.843h-14.577c-5.702,14.352-9.49,18.139-23.843,23.843v14.577H337.605z M368.735,67.591
	c2.987,4.419,6.42,7.851,10.839,10.839c-4.42,2.987-7.852,6.42-10.839,10.839c-2.987-4.419-6.42-7.851-10.839-10.839
	C362.315,75.443,365.748,72.01,368.735,67.591z"/>
<path d="M192.47,261.777c-15.011-25.152-22.946-54.019-22.946-83.48c0-33.477,10.063-65.643,29.101-93.021
	c18.612-26.764,44.431-47.158,74.667-58.977l-5.711-14.61c-33.142,12.955-61.441,35.304-81.835,64.631
	c-20.875,30.02-31.909,65.282-31.909,101.976c0,32.29,8.7,63.936,25.163,91.518L192.47,261.777z"/>
<path d="M471.852,66.033C446.677,34.856,411.418,12.808,372.57,3.95l-3.486,15.294c35.429,8.078,67.593,28.195,90.564,56.643
	c23.307,28.863,36.144,65.234,36.144,102.41c0,89.953-73.181,163.134-163.134,163.134c-25.406,0-49.742-5.676-72.335-16.872
	l-6.965,14.055c24.775,12.277,51.456,18.502,79.3,18.502c98.602,0,178.82-80.218,178.82-178.82
	C511.477,137.546,497.405,97.676,471.852,66.033z"/>
<path d="M227.836,115.16c-11.467,19-17.53,40.832-17.53,63.137c0,17.73,3.712,34.836,11.033,50.843l14.265-6.524
	c-6.378-13.945-9.611-28.856-9.611-44.318c0-19.449,5.281-38.478,15.272-55.031L227.836,115.16z"/>
<path d="M332.657,284.962c-6.383,0-12.778-0.568-19.003-1.687l-2.775,15.439c7.139,1.283,14.467,1.934,21.778,1.934
	c67.464,0,122.35-54.886,122.35-122.35c0-15.214-2.76-30.062-8.203-44.13l-14.63,5.661c4.742,12.255,7.147,25.198,7.147,38.469
	C439.322,237.112,391.472,284.962,332.657,284.962z"/>
<path d="M428.113,101.754l-12.232,9.819c4.609,5.741,8.628,11.967,11.949,18.507l13.987-7.101
	C438.007,115.478,433.397,108.337,428.113,101.754z"/>
</svg>